<?xml version="1.0" encoding="UTF-8"?>
<svg width="300px" height="91px" viewBox="0 0 300 91" version="1.1" xmlns="http://www.w3.org/2000/svg" xmlns:xlink="http://www.w3.org/1999/xlink">
    <title>logo_full</title>
    <g id="Page-1" stroke="none" stroke-width="1" fill="none" fill-rule="evenodd" opacity="0.95">
        <g id="Desktop-HD" transform="translate(-88.000000, -48.000000)" fill-rule="nonzero">
            <g id="Hero" transform="translate(88.000000, 48.000000)">
                <g id="logo_full">
                    <path d="M79.2985907,21.8733851 C82.9329162,42.1697781 70.9049304,63.0750988 51.0122865,69.8862212 L51.0122865,88.5007574 C47.9145955,89.2226041 44.6955819,89.6159318 41.3943979,89.6489329 L41.3939024,63.7826318 C63.93463,56.0283973 75.5715882,30.8582974 67.8468873,9.08660184 C72.4288969,12.576554 76.3349096,16.926122 79.2985907,21.8733851 L79.2985907,21.8733851 Z M25.0442948,86.6943518 C25.0442948,75.3845608 25.0442948,64.0750681 25.0442948,52.7655753 C46.403019,45.8670799 58.8901276,23.1511788 53.6918903,1.86893139 C51.7677775,1.29071858 49.7909327,0.837949213 47.770178,0.523247181 C51.2395682,21.0328544 38.7451249,41.8189937 18.6345165,48.3937416 C18.6339218,60.1382111 18.6333272,71.8827799 18.6328316,83.6273488 C19.9103863,84.425535 22.9080654,85.8938794 25.0442948,86.6943518 Z M0,26.7445076 C0.553583914,25.5199926 1.36101356,24.0271956 2.01827674,22.8635137 C8.17311881,19.4488077 13.1286117,14.0989724 16.0504642,7.64599013 C17.1546585,6.89869703 18.6412568,6.00160735 19.8117621,5.35321777 C17.2467407,15.2640458 9.6872724,23.0193738 0,26.7445076 Z M82.6635087,28.7692961 C91.7846089,52.4172758 78.7492689,80.3289414 53.5767132,87.8177764 L53.5767132,72.2183561 C71.8728349,66.0725215 83.9554357,47.9479303 82.6635087,28.7692961 Z M3.56474338,69.3265962 C2.3610329,67.487786 1.12649618,65.5563346 0.1975457,63.5447662 L0.198437781,35.1738703 C16.104881,31.6450524 27.6069372,17.6708306 27.855034,1.91883045 C27.855034,1.72947246 31.889506,0.929795299 32.2167994,0.864091556 C32.4264378,18.4009274 20.519279,33.9811635 3.56474338,38.288188 L3.56474338,69.3265962 Z M43.0060855,0.0473174944 C46.7921633,19.8551571 33.7478034,40.232959 13.5031853,44.5563846 L13.5031853,80.1475355 C11.7974332,78.8103002 10.2020014,77.2250608 8.70618493,75.6590056 L8.70985236,41.4070781 C27.6643275,37.109596 40.4318459,19.0895743 38.1593269,0.0878728989 C39.7726994,-0.0127204148 41.3913252,-0.0279287018 43.0060855,0.0473174944 Z M57.1427452,3.06163821 C59.381266,3.9032624 61.8228833,5.02181644 63.8157855,6.35408159 C71.662701,28.1237891 60.1070209,53.3778825 37.5473615,61.2100469 L37.5473615,89.5249804 C34.8003563,89.3153446 32.1336379,88.8515419 29.5445304,88.1615035 L29.5468102,55.9948993 C51.5821261,48.729616 63.6483721,24.6321472 57.1427452,3.06163821 L57.1427452,3.06163821 Z" id="Shape" fill="#EC1D24"></path>
                    <path d="M158.275465,44.6415094 C165.626167,44.6415094 169.569182,49.1056324 169.569182,55.9043214 C169.569182,62.7484065 165.757464,67.3000309 158.275465,67.3000309 C150.793565,67.3000309 146.981847,62.6326413 146.981847,55.9043214 C146.981847,49.2746341 150.924763,44.6415094 158.275465,44.6415094 L158.275465,44.6415094 Z M286.531666,57.9311803 L291.836066,66.902693 L285.516864,66.902693 L280.760418,58.6977859 L276.480162,58.6977859 L276.480162,66.902693 L270.87947,66.902693 L270.87947,45.0379762 L282.445525,45.0379762 C287.944635,45.0379762 290.65836,48.084653 290.65836,51.7549712 C290.65836,55.4252896 289.305224,56.913008 286.531666,57.9311803 Z M284.876973,51.8016258 C284.876973,49.7147548 282.986818,49.83052 281.358067,49.83052 L276.480162,49.83052 L276.480162,53.9055325 L281.358067,53.9055325 C283.027967,53.9055325 284.876973,53.8884969 284.876973,51.8016258 Z M211.951607,44.6415094 C219.302308,44.6415094 223.245324,49.1056324 223.245324,55.9043214 C223.245324,62.7484065 219.433606,67.3000309 211.951607,67.3000309 C204.469607,67.3000309 200.65789,62.6326413 200.65789,55.9043214 C200.65789,49.2746341 204.600906,44.6415094 211.951607,44.6415094 L211.951607,44.6415094 Z M217.237421,55.9043214 C217.237421,52.4228474 215.784197,49.3012523 211.951607,49.3012523 C208.119016,49.3012523 206.66639,52.7018068 206.66639,55.9043214 C206.66639,59.5126916 207.848568,62.6397072 211.951607,62.6397072 C216.054645,62.6397072 217.237421,59.2868721 217.237421,55.9043214 Z M185.183112,59.7448029 L190.216765,45.0379762 L197.700156,45.0379762 L197.700156,66.902693 L192.22649,66.902693 L192.447341,53.6898762 L188.034694,66.902693 L182.473065,66.902693 L177.844535,53.5946314 L178.285243,66.902693 L172.530594,66.902693 L172.530594,45.0379762 L180.149755,45.0379762 L185.183112,59.7448029 Z M238.485436,66.902693 L225.802405,66.902693 L225.802405,62.1104396 L237.639603,62.1104396 C239.026033,62.1104396 240.614829,61.9008814 240.614829,60.2718443 C240.614829,58.5990565 239.428674,58.432765 238.047312,58.432765 L232.746788,58.432765 C228.289614,58.432765 224.986488,56.5266077 224.986488,51.8016258 C224.986488,47.0768376 228.68808,45.0379762 233.018727,45.0379762 L245.399704,45.0379762 L245.399704,49.83052 L233.698276,49.83052 C232.067239,49.83052 230.85882,50.1547787 230.85882,51.9341363 C230.85882,53.3636817 231.839629,53.6402211 233.154796,53.6402211 L238.998701,53.6402211 C243.577632,53.6402211 246.487161,55.3799902 246.487161,60.1393337 C246.487161,64.898387 242.860612,66.902693 238.485436,66.902693 L238.485436,66.902693 Z M259.110953,45.0379762 L267.007422,45.0379762 L267.007422,49.83052 L259.110953,49.83052 C256.625435,49.83052 254.840638,50.7943912 254.659146,53.3756842 L267.007422,53.3756842 L267.007422,58.1679376 L254.649902,58.1679376 C254.755258,61.2352314 256.341469,62.1104396 259.110953,62.1104396 L267.007422,62.1104396 L267.007422,66.902693 L258.975481,66.902693 C251.911329,66.902693 248.630668,62.359296 248.616761,55.7789735 C248.602838,49.198651 251.765421,45.0379762 259.110953,45.0379762 L259.110953,45.0379762 Z M114.454229,59.6241011 L107.600492,59.6241011 L107.600492,66.902693 L102,66.902693 L102,45.0379762 L114.401252,45.0072926 C119.297645,45.0072926 122.005803,47.3729294 122.005803,52.3308935 C122.005803,57.2888576 119.310069,59.6241011 114.454229,59.6241011 Z M107.600492,49.83052 L107.600492,54.8318477 L112.342527,54.8318477 C114.162312,54.8318477 115.861234,54.5080729 115.861234,52.3308935 C115.861234,50.1537139 114.206045,49.83052 112.206756,49.83052 L107.600492,49.83052 Z M140.754683,57.9311803 L146.059084,66.902693 L139.739882,66.902693 L134.983435,58.6977859 L130.70298,58.6977859 L130.70298,66.902693 L125.102488,66.902693 L125.102488,45.0379762 L136.668343,45.0379762 C142.167355,45.0379762 144.881179,48.084653 144.881179,51.7549712 C144.881179,55.4252896 143.528242,56.913008 140.754683,57.9311803 Z M139.099792,51.8016258 C139.099792,49.7147548 137.209538,49.83052 135.581084,49.83052 L130.70298,49.83052 L130.70298,53.9055325 L135.581084,53.9055325 C137.250985,53.9055325 139.099792,53.8884969 139.099792,51.8016258 Z M163.561278,55.9043214 C163.561278,52.4228474 162.108056,49.3012523 158.275465,49.3012523 C154.442974,49.3012523 152.990247,52.7018068 152.990247,55.9043214 C152.990247,59.5126916 154.172427,62.6397072 158.275465,62.6397072 C162.378504,62.6397072 163.561278,59.2868721 163.561278,55.9043214 Z" id="Shape" fill="#FFFFFF"></path>
                    <path d="M95.8626499,72.1963638 C107.892871,72.1963638 272.129978,72.1132075 297.916517,72.1132075 C300.645692,72.121557 300.705663,76.0302384 297.916517,76.039152 C271.255647,76.039152 108.362743,76.05382 95.6048538,76.05382 C92.5301031,76.0544969 92.8016551,72.1953484 95.8626499,72.1963638" id="Path" fill="#EC1D24"></path>
                    <path d="M110.227966,90.3004603 L108,90.3004603 L108,80.9210111 L110.483848,80.9210111 C111.453724,80.9210111 112.135483,80.9712325 112.529423,81.0739195 C112.920785,81.1766064 113.253929,81.3514199 113.527763,81.5985738 C113.848509,81.8851567 114.093978,82.2434389 114.262385,82.6720311 C114.430791,83.1027605 114.514003,83.5795439 114.514003,84.1044119 C114.514003,84.6641142 114.430791,85.156071 114.264566,85.5800686 C114.098144,86.0063101 113.852476,86.3540135 113.527763,86.6272399 C113.281996,86.8326136 112.991897,86.9792176 112.659051,87.0688683 C112.326403,87.158519 111.79252,87.2045731 111.059882,87.2045731 L110.656222,87.2045731 L110.227966,87.2045731 L110.227966,90.3004603 Z M110.227966,85.1448514 L110.68062,85.1448514 C111.250803,85.1448514 111.648611,85.0596885 111.873748,84.8910726 C112.098985,84.722884 112.212545,84.4367284 112.212545,84.0299345 C112.212545,83.6363904 112.101266,83.3565393 111.879997,83.190274 C111.658727,83.0243294 111.265084,82.9413037 110.702836,82.9413037 L110.227966,82.9413037 L110.227966,85.1448514 Z M115.717544,90.3004603 L115.717544,80.9210111 L118.201393,80.9210111 C119.171566,80.9210111 119.849159,80.9688818 120.230603,81.0651575 C120.612146,81.16154 120.943009,81.3228899 121.22081,81.5482454 C121.533721,81.804268 121.774925,82.1319899 121.943332,82.5278848 C122.112036,82.9258099 122.19495,83.3629505 122.19495,83.8417641 C122.19495,84.5678386 122.028527,85.1578875 121.697863,85.6128727 C121.365017,86.0674306 120.882013,86.3691869 120.246968,86.5181417 L122.621124,90.3004603 L119.942487,90.3004603 L117.94551,86.6272399 L117.94551,90.3004603 L115.717544,90.3004603 Z M117.94551,85.3550336 L118.383784,85.3550336 C118.895549,85.3550336 119.268563,85.2605744 119.504213,85.0727248 C119.739467,84.8846613 119.857292,84.5893162 119.857292,84.1895746 C119.857292,83.7194161 119.747599,83.3850693 119.528611,83.1859999 C119.307342,82.9870373 118.939883,82.8886246 118.420381,82.8886246 L117.94551,82.8886246 L117.94551,85.3550336 Z M132.461305,85.6300763 C132.461305,86.3058223 132.345761,86.9376513 132.116359,87.5258838 C131.886858,88.1162533 131.552029,88.6429378 131.111771,89.1088221 C130.667348,89.5701118 130.159848,89.9242267 129.589764,90.1756545 C129.019582,90.4249455 128.427184,90.5496443 127.814057,90.5496443 C127.191012,90.5496443 126.594448,90.4249455 126.026249,90.1756545 C125.45815,89.9242267 124.958782,89.5701118 124.526657,89.1088221 C124.078267,88.6429378 123.739272,88.1141162 123.505903,87.5192589 C123.274517,86.9267522 123.158973,86.2970603 123.158973,85.6300763 C123.158973,84.958925 123.274517,84.3294468 123.505903,83.7367265 C123.739272,83.1466776 124.078267,82.6175354 124.526657,82.1519717 C124.958782,81.690682 125.45815,81.3362465 126.026249,81.0848186 C126.594448,80.8356346 127.191012,80.7110426 127.814057,80.7110426 C128.431151,80.7110426 129.027715,80.8356346 129.599881,81.0848186 C130.172245,81.3362465 130.675481,81.690682 131.111771,82.1519717 C131.548161,82.6129408 131.880709,83.1399458 132.114376,83.7349099 C132.345761,84.3269891 132.461305,84.958925 132.461305,85.6300763 Z M127.81009,88.3848848 C128.467748,88.3848848 129.011449,88.1250153 129.441591,87.6046353 C129.871731,87.0819046 130.08705,86.4240031 130.08705,85.6300763 C130.08705,84.845339 129.869748,84.1895746 129.433458,83.6624628 C128.997366,83.1379155 128.455351,82.8752678 127.81009,82.8752678 C127.15253,82.8752678 126.608829,83.1379155 126.178688,83.6603258 C125.748249,84.1828428 125.533229,84.8410647 125.533229,85.6300763 C125.533229,86.4327651 125.744282,87.0930174 126.168572,87.6089095 C126.592464,88.1271524 127.140431,88.3848848 127.81009,88.3848848 L127.81009,88.3848848 Z M143.931202,90.3004603 L141.712957,90.3004603 L141.203869,86.2447018 C141.167272,85.9584394 141.134641,85.6409755 141.104293,85.2889976 C141.075629,84.939157 141.047264,84.5569394 141.025048,84.1435205 C140.968219,84.5414455 140.860807,85.0355395 140.698351,85.6300763 C140.661754,85.7524244 140.635372,85.8445328 140.619107,85.9057601 L139.438278,90.3004603 L137.855473,90.3004603 L136.674148,85.9057601 C136.658081,85.8445328 136.633683,85.7524244 136.60135,85.6300763 C136.43463,85.0355395 136.327218,84.5435827 136.274653,84.1501455 C136.25214,84.5042604 136.223476,84.8562381 136.191144,85.2039417 C136.160796,85.5516454 136.122215,85.8990283 136.079568,86.2447018 L135.568099,90.3004603 L133.36235,90.3004603 L134.705635,80.9210111 L137.053707,80.9210111 L138.366842,85.7570191 C138.374776,85.7921741 138.391042,85.8469903 138.41554,85.9254213 C138.537232,86.3561507 138.614295,86.7256525 138.646925,87.0340338 C138.662893,86.8656316 138.691556,86.6817355 138.735988,86.4784988 C138.778734,86.2752621 138.839432,86.0302454 138.914511,85.7439828 L140.239547,80.9210111 L142.593769,80.9210111 L143.931202,90.3004603 Z M154.144398,85.6300763 C154.144398,86.3058223 154.029052,86.9376513 153.799649,87.5258838 C153.570248,88.1162533 153.235418,88.6429378 152.795161,89.1088221 C152.350738,89.5701118 151.843238,89.9242267 151.273055,90.1756545 C150.702972,90.4249455 150.110275,90.5496443 149.497447,90.5496443 C148.874401,90.5496443 148.277838,90.4249455 147.709639,90.1756545 C147.14144,89.9242267 146.642172,89.5701118 146.210046,89.1088221 C145.761657,88.6429378 145.422563,88.1141162 145.189293,87.5192589 C144.957907,86.9267522 144.842065,86.2970603 144.842065,85.6300763 C144.842065,84.958925 144.957907,84.3294468 145.189293,83.7367265 C145.422563,83.1466776 145.761657,82.6175354 146.210046,82.1519717 C146.642172,81.690682 147.14144,81.3362465 147.709639,81.0848186 C148.277838,80.8356346 148.874401,80.7110426 149.497447,80.7110426 C150.114244,80.7110426 150.710807,80.8356346 151.283171,81.0848186 C151.855635,81.3362465 152.35887,81.690682 152.795161,82.1519717 C153.231253,82.6129408 153.564099,83.1399458 153.797666,83.7349099 C154.029052,84.3269891 154.144398,84.958925 154.144398,85.6300763 L154.144398,85.6300763 Z M149.49348,88.3848848 C150.150741,88.3848848 150.69474,88.1250153 151.124881,87.6046353 C151.555022,87.0819046 151.77044,86.4240031 151.77044,85.6300763 C151.77044,84.845339 151.553138,84.1895746 151.116748,83.6624628 C150.680756,83.1379155 150.13874,82.8752678 149.49348,82.8752678 C148.83592,82.8752678 148.292219,83.1379155 147.862078,83.6603258 C147.431341,84.1828428 147.216519,84.8410647 147.216519,85.6300763 C147.216519,86.4327651 147.427374,87.0930174 147.851665,87.6089095 C148.275556,88.1271524 148.823821,88.3848848 149.49348,88.3848848 L149.49348,88.3848848 Z M161.937218,81.2880553 L161.937218,84.082293 C161.612506,83.6931299 161.287793,83.4090046 160.965062,83.2275661 C160.642631,83.0458071 160.295701,82.9540194 159.928241,82.9540194 C159.246482,82.9540194 158.694252,83.2057679 158.272342,83.7063799 C157.850334,84.2070987 157.639182,84.860726 157.639182,85.6673684 C157.639182,86.4194083 157.854301,87.0424753 158.284641,87.5367829 C158.714781,88.0332276 159.26245,88.2800607 159.928241,88.2800607 C160.295701,88.2800607 160.642631,88.1904101 160.965062,88.0089717 C161.287793,87.8296703 161.612506,87.5431942 161.937218,87.1521077 L161.937218,89.9460249 C161.561627,90.1428503 161.186331,90.2915914 160.814905,90.390111 C160.441594,90.4882031 160.066299,90.5363943 159.684757,90.5363943 C159.209884,90.5363943 158.771611,90.4754874 158.369835,90.3549558 C157.96816,90.2326078 157.598716,90.0468952 157.261605,89.7997414 C156.612477,89.3295829 156.117075,88.7393203 155.776096,88.0266026 C155.435316,87.3117479 155.264728,86.5093797 155.264728,85.6170402 C155.264728,84.9001552 155.372337,84.2482376 155.589441,83.6603258 C155.80476,83.0724138 156.131457,82.540921 156.565564,82.0620004 C156.977358,81.6051986 157.442112,81.2642268 157.959728,81.0367342 C158.477247,80.8116992 159.051595,80.6981132 159.684757,80.6981132 C160.066299,80.6981132 160.441594,80.7458771 160.814905,80.8443967 C161.186331,80.9428094 161.561627,81.0915504 161.937218,81.2880553 L161.937218,81.2880553 Z M163.337533,90.3004603 L163.337533,80.9210111 L165.736285,80.9210111 L165.736285,90.3004603 L163.337533,90.3004603 Z M176.582839,85.6300763 C176.582839,86.3058223 176.467296,86.9376513 176.238192,87.5258838 C176.008789,88.1162533 175.673959,88.6429378 175.233405,89.1088221 C174.78918,89.5701118 174.281779,89.9242267 173.711299,90.1756545 C173.141117,90.4249455 172.548818,90.5496443 171.935591,90.5496443 C171.312944,90.5496443 170.716082,90.4249455 170.148181,90.1756545 C169.579982,89.9242267 169.080416,89.5701118 168.648589,89.1088221 C168.199901,88.6429378 167.860807,88.1141162 167.627736,87.5192589 C167.396349,86.9267522 167.280508,86.2970603 167.280508,85.6300763 C167.280508,84.958925 167.396349,84.3294468 167.627736,83.7367265 C167.860807,83.1466776 168.199901,82.6175354 168.648589,82.1519717 C169.080416,81.690682 169.579982,81.3362465 170.148181,81.0848186 C170.716082,80.8356346 171.312944,80.7110426 171.935591,80.7110426 C172.552685,80.7110426 173.149348,80.8356346 173.721713,81.0848186 C174.29378,81.3362465 174.797313,81.690682 175.233405,82.1519717 C175.669695,82.6129408 176.002541,83.1399458 176.23591,83.7349099 C176.467296,84.3269891 176.582839,84.958925 176.582839,85.6300763 L176.582839,85.6300763 Z M171.931724,88.3848848 C172.589283,88.3848848 173.132984,88.1250153 173.563422,87.6046353 C173.993564,87.0819046 174.208684,86.4240031 174.208684,85.6300763 C174.208684,84.845339 173.991282,84.1895746 173.555289,83.6624628 C173.118901,83.1379155 172.576886,82.8752678 171.931724,82.8752678 C171.274363,82.8752678 170.730364,83.1379155 170.300223,83.6603258 C169.869784,84.1828428 169.654763,84.8410647 169.654763,85.6300763 C169.654763,86.4327651 169.865916,87.0930174 170.290106,87.6089095 C170.714099,88.1271524 171.262064,88.3848848 171.931724,88.3848848 L171.931724,88.3848848 Z M178.068646,90.3004603 L178.068646,80.9210111 L180.357706,80.9210111 L183.648974,85.7439828 C183.711953,85.8423956 183.815397,86.0414651 183.959603,86.3388403 C184.105596,86.6335443 184.263788,86.9879796 184.43874,87.3992616 C184.392026,87.0100985 184.357412,86.6644252 184.334998,86.360318 C184.312782,86.0565315 184.302666,85.7879 184.302666,85.5537824 L184.302666,80.9210111 L186.579527,80.9210111 L186.579527,90.3004603 L184.302666,90.3004603 L181.012984,85.4577204 C180.943856,85.3593078 180.838429,85.1603452 180.69452,84.8650001 C180.54833,84.5678386 180.392022,84.2179979 180.221632,83.8154781 C180.268346,84.2092358 180.302563,84.5569394 180.325076,84.860726 C180.347293,85.1645125 180.357706,85.4334645 180.357706,85.6673684 L180.357706,90.3004603 L178.068646,90.3004603 Z M190.745456,86.7977791 L193.105629,86.7977791 L192.218965,83.701892 C192.192485,83.6079672 192.154002,83.4570891 192.107289,83.2472274 C192.058691,83.0373657 191.997696,82.7683068 191.922617,82.4402644 C191.871738,82.669894 191.821156,82.8907616 191.770475,83.1006233 C191.721581,83.3084549 191.670999,83.5095544 191.620418,83.701892 L190.745456,86.7977791 Z M187.419576,90.3004603 L190.425008,80.9210111 L193.398009,80.9210111 L196.405327,90.3004603 L194.045156,90.3004603 L193.604898,88.6211394 L190.234385,88.6211394 L189.78173,90.3004603 L187.419576,90.3004603 Z M197.235558,90.3004603 L197.235558,80.9210111 L199.609515,80.9210111 L199.609515,88.1096283 L202.556134,88.1096283 L202.556134,90.3004603 L197.235558,90.3004603 Z M203.714946,90.3004603 L203.714946,80.9210111 L209.047921,80.9210111 L209.047921,82.9804123 L206.028206,82.9804123 L206.028206,84.6072678 L208.875249,84.6072678 L208.875249,86.6138831 L206.028206,86.6138831 L206.028206,88.2013093 L209.047921,88.2013093 L209.047921,90.3004603 L203.714946,90.3004603 Z M211.004334,87.2699679 C211.357115,87.7010178 211.704342,88.0223285 212.047105,88.2364643 C212.390068,88.448463 212.731047,88.5554241 213.071827,88.5554241 C213.388408,88.5554241 213.650141,88.4636364 213.853063,88.2800607 C214.058363,88.0965921 214.159528,87.8645048 214.159528,87.5825165 C214.159528,87.2724256 214.072348,87.0315762 213.895809,86.8634944 C213.719269,86.6950922 213.321759,86.5199583 212.7004,86.3406569 C211.848251,86.0938236 211.243554,85.7703759 210.890475,85.374481 C210.537298,84.9764491 210.360758,84.4321338 210.360758,83.7412143 C210.360758,82.8425704 210.638857,82.1123288 211.19694,81.5462151 C211.752742,80.9801015 212.477445,80.6981132 213.364207,80.6981132 C213.845227,80.6981132 214.299569,80.7677821 214.729709,80.9055172 C215.160148,81.0454963 215.568072,81.255358 215.953484,81.5373463 L215.208746,83.3741702 C214.939176,83.1270164 214.663061,82.9413037 214.378813,82.8143609 C214.096549,82.6895552 213.816565,82.6262976 213.538764,82.6262976 C213.254515,82.6262976 213.023427,82.7004543 212.844606,82.8468447 C212.666084,82.9934486 212.577021,83.1839697 212.577021,83.4134925 C212.577021,83.6473964 212.654083,83.8351393 212.810092,83.9774691 C212.966399,84.1171274 213.268896,84.2528324 213.715302,84.3797752 L213.823012,84.4124725 C214.790705,84.6944608 215.428031,85.002842 215.732215,85.3417837 C215.939401,85.5713064 216.095707,85.8488069 216.203119,86.1701175 C216.310529,86.4939926 216.363392,86.8504583 216.363392,87.2438955 C216.363392,88.2386013 216.061193,89.0388326 215.454414,89.6422384 C214.847436,90.2479948 214.037834,90.5496443 213.027394,90.5496443 C212.420416,90.5496443 211.868582,90.4378749 211.369215,90.2174346 C210.872227,89.9942161 210.39309,89.6465125 209.934585,89.1720797 L211.004334,87.2699679 Z M223.048281,90.3004603 L223.048281,86.0193462 L220.004069,80.9210111 L222.727534,80.9210111 L223.898446,83.336878 C223.906579,83.3499143 223.918679,83.3717125 223.935044,83.406547 C224.056736,83.6582955 224.141932,83.9008546 224.190529,84.1304842 C224.22911,83.9205157 224.314206,83.6888558 224.446115,83.4331537 C224.468629,83.3850693 224.484895,83.3544021 224.493027,83.336878 L225.651641,80.9210111 L228.381155,80.9210111 L225.337043,86.0193462 L225.337043,90.3004603 L223.048281,90.3004603 Z M233.837807,90.3004603 L233.837807,83.1379155 L231.889825,83.1379155 L231.889825,80.9210111 L238.160343,80.9210111 L238.160343,83.1379155 L236.212261,83.1379155 L236.212261,90.3004603 L233.837807,90.3004603 Z M239.318856,90.3004603 L239.318856,80.9210111 L244.652129,80.9210111 L244.652129,82.9804123 L241.632414,82.9804123 L241.632414,84.6072678 L244.479458,84.6072678 L244.479458,86.6138831 L241.632414,86.6138831 L241.632414,88.2013093 L244.652129,88.2013093 L244.652129,90.3004603 L239.318856,90.3004603 Z M249.300964,83.0984863 L249.313362,83.1245587 C249.451419,83.406547 249.54445,83.6537008 249.593344,83.8681572 C249.635793,83.6712249 249.725254,83.439565 249.859046,83.1706129 C249.875311,83.1399458 249.887412,83.1161172 249.895643,83.0984863 L250.940597,80.9210111 L253.753424,80.9210111 L250.847567,85.4311138 L254.061773,90.3004603 L251.369053,90.3004603 L249.895643,87.5192589 C249.828697,87.3969107 249.767999,87.2678309 249.717121,87.1387509 C249.666142,87.0076408 249.623694,86.8765307 249.593344,86.7453137 C249.556846,86.8940548 249.5141,87.0315762 249.467387,87.1608698 C249.420772,87.2896291 249.363943,87.4078098 249.300964,87.5192589 L247.815454,90.3004603 L245.124718,90.3004603 L248.349337,85.381106 L245.431381,80.9210111 L248.25601,80.9210111 L249.300964,83.0984863 Z M256.070849,90.3004603 L256.070849,83.1379155 L254.122768,83.1379155 L254.122768,80.9210111 L260.393285,80.9210111 L260.393285,83.1379155 L258.445005,83.1379155 L258.445005,90.3004603 L256.070849,90.3004603 Z M261.612894,90.3004603 L261.612894,80.9210111 L264.011547,80.9210111 L264.011547,90.3004603 L261.612894,90.3004603 Z M265.921048,90.3004603 L265.921048,80.9210111 L268.295303,80.9210111 L268.295303,88.1096283 L271.241824,88.1096283 L271.241824,90.3004603 L265.921048,90.3004603 Z M272.400734,90.3004603 L272.400734,80.9210111 L277.73361,80.9210111 L277.73361,82.9804123 L274.713894,82.9804123 L274.713894,84.6072678 L277.561037,84.6072678 L277.561037,86.6138831 L274.713894,86.6138831 L274.713894,88.2013093 L277.73361,88.2013093 L277.73361,90.3004603 L272.400734,90.3004603 Z M279.689823,87.2699679 C280.042902,87.7010178 280.389831,88.0223285 280.732794,88.2364643 C281.075856,88.448463 281.416835,88.5554241 281.757615,88.5554241 C282.074096,88.5554241 282.335831,88.4636364 282.538851,88.2800607 C282.743854,88.0965921 282.845314,87.8645048 282.845314,87.5825165 C282.845314,87.2724256 282.758136,87.0315762 282.581598,86.8634944 C282.405058,86.6950922 282.007249,86.5199583 281.386188,86.3406569 C280.533741,86.0938236 279.929045,85.7703759 279.575966,85.374481 C279.223085,84.9764491 279.046546,84.4321338 279.046546,83.7412143 C279.046546,82.8425704 279.324645,82.1123288 279.882628,81.5462151 C280.43843,80.9801015 281.162936,80.6981132 282.049996,80.6981132 C282.530718,80.6981132 282.985257,80.7677821 283.415397,80.9055172 C283.845539,81.0454963 284.253762,81.255358 284.639272,81.5373463 L283.894534,83.3741702 C283.624568,83.1270164 283.348551,82.9413037 283.064304,82.8143609 C282.782335,82.6895552 282.502353,82.6262976 282.224253,82.6262976 C281.940303,82.6262976 281.708918,82.7004543 281.530395,82.8468447 C281.351574,82.9934486 281.262511,83.1839697 281.262511,83.4134925 C281.262511,83.6473964 281.339771,83.8351393 281.49588,83.9774691 C281.652187,84.1171274 281.954685,84.2528324 282.401091,84.3797752 L282.508502,84.4124725 C283.476493,84.6944608 284.113819,85.002842 284.418002,85.3417837 C284.625189,85.5713064 284.781198,85.8488069 284.888906,86.1701175 C284.996318,86.4939926 285.04918,86.8504583 285.04918,87.2438955 C285.04918,88.2386013 284.746881,89.0388326 284.139903,89.6422384 C283.533223,90.2479948 282.723522,90.5496443 281.712885,90.5496443 C281.106204,90.5496443 280.554271,90.4378749 280.055003,90.2174346 C279.557915,89.9942161 279.078878,89.6465125 278.620373,89.1720797 L279.689823,87.2699679 Z" id="Shape" fill="#FFFFFF"></path>
                    <path d="M110.711062,29.3741776 L109.605009,37.882645 L108,37.882645 L109.127966,29.3741776 L110.711062,29.3741776 Z M111.116341,27.6037314 C111.116341,27.8712759 111.022554,28.0989378 110.834323,28.2863852 C110.64642,28.4713953 110.421593,28.5640109 110.156666,28.5640109 C109.879578,28.5640109 109.649821,28.4713953 109.464,28.2889331 C109.278617,28.1064711 109.18735,27.8762611 109.18735,27.6037314 C109.18735,27.3285429 109.278617,27.0984435 109.464,26.9108855 C109.649821,26.7231058 109.879578,26.6282744 110.156666,26.6282744 C110.426195,26.6282744 110.65387,26.7231058 110.839582,26.9108855 C111.024636,27.0984435 111.116341,27.3285429 111.116341,27.6037314 Z M111.098263,35.7519276 L112.265782,34.776249 C112.555251,35.3640713 112.869153,35.7868247 113.200586,36.0493839 C113.534757,36.3121646 113.927984,36.4422256 114.378294,36.4422256 C114.937073,36.4422256 115.392313,36.2772674 115.741057,35.944471 C116.08991,35.6118961 116.262912,35.179172 116.262912,34.6461881 C116.262912,34.2687454 116.171207,33.9512371 115.988343,33.6886781 C115.80296,33.4284454 115.47865,33.1607901 115.016178,32.8857123 C114.91998,32.8279937 114.776451,32.7456808 114.588219,32.6379984 C113.794425,32.1929772 113.260189,31.8152022 112.98321,31.5077753 C112.785336,31.2876467 112.636548,31.0348366 112.53783,30.7474618 C112.438784,30.4569848 112.389371,30.1445727 112.389371,29.8094498 C112.389371,28.8666741 112.68881,28.0963899 113.287251,27.5034715 C113.885692,26.9108855 114.669955,26.6132075 115.63456,26.6132075 C116.287674,26.6132075 116.859162,26.7482538 117.348915,27.0157983 C117.840859,27.2858908 118.244056,27.6884814 118.563327,28.2213548 L117.548979,29.1641303 C117.311663,28.7740583 117.049585,28.4839138 116.760115,28.2935862 C116.470646,28.1035909 116.146664,28.008427 115.79047,28.008427 C115.268724,28.008427 114.845367,28.1614203 114.521495,28.4691795 C114.197841,28.7766063 114.037001,29.1742117 114.037001,29.6643221 C114.037001,30.2493748 114.504074,30.7948775 115.436687,31.3027134 C115.669401,31.4251301 115.844814,31.5225098 115.965992,31.5976216 C116.67838,32.0152789 117.182815,32.4529883 117.479735,32.9033271 C117.776654,33.3558816 117.925114,33.9085851 117.925114,34.563986 C117.925114,35.5792147 117.601132,36.3869441 116.952949,36.9848477 C116.307285,37.5827515 115.426826,37.882645 114.316171,37.882645 C113.56182,37.882645 112.918567,37.7077163 112.384659,37.3550894 C111.850204,37.0048998 111.422245,36.4694785 111.098263,35.7519276 L111.098263,35.7519276 Z M119.485093,30.6498606 L121.043208,30.6498606 L120.672442,33.5609436 C120.662472,33.625974 120.652611,33.7160417 120.637601,33.8334733 C120.551045,34.4688221 120.506562,34.8889168 120.506562,35.0940895 C120.506562,35.5443175 120.63015,35.8895219 120.874918,36.126933 C121.122424,36.3671138 121.473687,36.4870932 121.933639,36.4870932 C122.571961,36.4870932 123.034652,36.3121646 123.328832,35.9595376 C123.620712,35.6068001 123.830966,34.9266942 123.962005,33.9211038 L124.395004,30.6498606 L125.95312,30.6498606 L125.490758,34.1761296 C125.369251,35.0840081 125.233281,35.7243424 125.08011,36.092036 C124.92924,36.4597294 124.713946,36.7772377 124.439378,37.0397969 C124.140376,37.3174226 123.771692,37.52747 123.333763,37.6703819 C122.898682,37.8126292 122.396439,37.882645 121.832401,37.882645 C120.870316,37.882645 120.147848,37.6628486 119.660615,37.2225912 C119.175792,36.784771 118.933545,36.1297026 118.933545,35.2613741 C118.933545,35.0314964 118.977919,34.5686389 119.064584,33.8759037 L119.072035,33.8611694 L119.485093,30.6498606 Z M139.793738,37.5974858 L140.315484,33.5885289 C140.330385,33.5008984 140.342437,33.411163 140.349888,33.3206521 C140.357338,33.2309167 140.359857,33.1381902 140.359857,33.0455743 C140.359857,32.5830492 140.263551,32.2278743 140.073238,31.9803819 C139.882814,31.7328893 139.608246,31.6101402 139.252051,31.6101402 C138.680564,31.6101402 138.237705,31.8152022 137.926213,32.2227783 C137.614721,32.630465 137.401947,33.2807698 137.285479,34.1761296 L136.857521,37.5974858 L135.284395,37.5974858 L135.784119,33.5960623 C135.799018,33.4534827 135.808989,33.3511178 135.808989,33.2858658 C135.81118,33.2182873 135.8137,33.1558049 135.8137,33.0983078 C135.8137,32.5955679 135.719913,32.220341 135.531682,31.9753965 C135.343778,31.7328893 135.054638,31.6101402 134.663602,31.6101402 C134.126956,31.6101402 133.708858,31.8152022 133.407008,32.2256586 C133.105377,32.6354503 132.894904,33.2858658 132.781176,34.1761296 L132.346095,37.5974858 L130.802551,37.5974858 L131.707883,30.6498606 L133.251426,30.6498606 L133.026271,31.4851753 C133.389587,31.1249043 133.763202,30.8549227 134.151498,30.6774459 C134.542424,30.4997476 134.953072,30.4099015 135.388481,30.4099015 C135.880425,30.4099015 136.286361,30.5148143 136.605304,30.7274097 C136.924245,30.940005 137.164301,31.2624986 137.329852,31.6977708 C137.735789,31.2549653 138.143918,30.9273757 138.554455,30.7198764 C138.965103,30.5122663 139.415083,30.4099015 139.902426,30.4099015 C140.555211,30.4099015 141.062385,30.5998968 141.423619,30.9802199 C141.782333,31.3626478 141.963115,31.9028327 141.963115,32.6005531 C141.963115,32.7456808 141.955663,32.9183937 141.940653,33.1131529 C141.925752,33.3084658 141.900991,33.5709142 141.861548,33.9034891 L141.381656,37.5974858 L139.793738,37.5974858 Z M144.417905,33.290851 L147.960014,33.290851 C147.945113,32.82323 147.801912,32.4529883 147.529865,32.1804586 C147.255295,31.9103661 146.891651,31.7753198 146.431371,31.7753198 C145.909516,31.7753198 145.466985,31.9129141 145.105751,32.1854438 C144.744626,32.4579735 144.514431,32.8279937 144.417905,33.290851 L144.417905,33.290851 Z M147.873677,35.4667685 L148.996384,36.354595 C148.595707,36.8849201 148.160298,37.2724442 147.692896,37.5173886 C147.222974,37.7602281 146.683808,37.882645 146.075396,37.882645 C145.056448,37.882645 144.232742,37.5702328 143.60417,36.9471811 C142.976147,36.3244617 142.661917,35.5069833 142.661917,34.4910898 C142.661917,33.2983845 143.02304,32.3204901 143.745508,31.5551912 C144.467538,30.7924402 145.387771,30.4099015 146.503355,30.4099015 C147.435748,30.4099015 148.180129,30.702594 148.731787,31.2850986 C149.285854,31.8676033 149.562832,32.6508493 149.562832,33.6335073 C149.562832,33.7160417 149.560422,33.8209547 149.552972,33.9512371 C149.545521,34.0812982 149.53336,34.2363963 149.518459,34.4163102 L144.279636,34.4163102 C144.279636,35.0465631 144.435217,35.5518509 144.749556,35.9243083 C145.063898,36.299646 145.481558,36.4870932 146.003631,36.4870932 C146.367056,36.4870932 146.71087,36.3972471 147.037262,36.2195488 C147.361464,36.0393025 147.641073,35.789262 147.873677,35.4667685 L147.873677,35.4667685 Z M151.137492,28.2189174 C151.137492,27.9613436 151.229088,27.7412149 151.409541,27.5584205 C151.590322,27.3785066 151.810548,27.2884388 152.072297,27.2884388 C152.332293,27.2884388 152.552188,27.3785066 152.72793,27.5559832 C152.903453,27.7336815 152.992528,27.9560259 152.992528,28.2189174 C152.992528,28.4864619 152.903453,28.7115759 152.72793,28.8940379 C152.552188,29.0742841 152.332293,29.1641303 152.072297,29.1641303 C151.803096,29.1641303 151.577614,29.0742841 151.402091,28.8940379 C151.226349,28.7115759 151.137492,28.4864619 151.137492,28.2189174 Z M151.239059,40.8688399 L149.683024,40.8688399 L151.013904,30.6498606 L152.57706,30.6498606 L151.239059,40.8688399 Z M157.028225,31.7900541 C156.338078,31.7900541 155.774041,32.0428642 155.336221,32.5456041 C154.898621,33.0484548 154.680807,33.6934418 154.680807,34.4787927 C154.680807,35.1040602 154.844168,35.5968294 155.17308,35.9520043 C155.502321,36.3096165 155.949892,36.4870932 156.521379,36.4870932 C157.24089,36.4870932 157.814897,36.2468018 158.247567,35.76921 C158.680457,35.2894026 158.895642,34.6461881 158.895642,33.8334733 C158.895642,33.1859382 158.732281,32.6806504 158.405889,32.3254754 C158.082015,31.9678632 157.621736,31.7900541 157.028225,31.7900541 L157.028225,31.7900541 Z M157.013324,30.3948348 C158.082015,30.3948348 158.933003,30.709795 159.570887,31.3425957 C160.2091,31.9753965 160.528371,32.8204603 160.528371,33.8759037 C160.528371,35.0415777 160.154756,36.0018573 159.405335,36.7546377 C158.655585,37.5077504 157.69372,37.882645 156.521379,37.882645 C155.47252,37.882645 154.633913,37.5724485 154.005671,36.9524987 C153.377319,36.3319951 153.063416,35.5069833 153.063416,34.4763554 C153.063416,33.2735688 153.42958,32.292794 154.163771,31.5350283 C154.898621,30.7748254 155.848325,30.3948348 157.013324,30.3948348 Z M165.644811,32.0454123 C165.538315,31.9678632 165.424586,31.907818 165.300998,31.8676033 C165.177409,31.8252836 165.04637,31.8051209 164.90536,31.8051209 C164.348773,31.8051209 163.913363,32.0127309 163.594422,32.4278402 C163.27548,32.8433927 163.059857,33.4811788 162.948759,34.3462946 L162.513568,37.5974858 L160.955125,37.5974858 L161.860126,30.6498606 L163.361816,30.6498606 L163.24535,31.5551912 C163.515207,31.1673347 163.811798,30.87996 164.133589,30.6921802 C164.45253,30.504733 164.801274,30.4099015 165.17215,30.4099015 C165.340441,30.4099015 165.506321,30.4321691 165.672201,30.4745996 C165.835234,30.5197997 165.996075,30.5873782 166.149245,30.6796617 L165.644811,32.0454123 Z M171.073072,28.2189174 C171.073072,27.9613436 171.164668,27.7412149 171.34512,27.5584205 C171.525902,27.3785066 171.746126,27.2884388 172.008204,27.2884388 C172.267872,27.2884388 172.488096,27.3785066 172.663509,27.5559832 C172.83936,27.7336815 172.928107,27.9560259 172.928107,28.2189174 C172.928107,28.4864619 172.83936,28.7115759 172.663509,28.8940379 C172.488096,29.0742841 172.267872,29.1641303 172.008204,29.1641303 C171.738676,29.1641303 171.51352,29.0742841 171.337669,28.8940379 C171.162257,28.7115759 171.073072,28.4864619 171.073072,28.2189174 Z M170.049411,37.5974858 L170.949483,30.6498606 L172.512638,30.6498606 L171.604788,37.5974858 L170.049411,37.5974858 Z M182.093831,37.5974858 L182.616015,33.5885289 C182.630586,33.5008984 182.642967,33.411163 182.650417,33.3206521 C182.657868,33.2309167 182.660388,33.1381902 182.660388,33.0455743 C182.660388,32.5830492 182.563751,32.2278743 182.373438,31.9803819 C182.183016,31.7328893 181.908446,31.6101402 181.552253,31.6101402 C180.981094,31.6101402 180.538234,31.8152022 180.226414,32.2227783 C179.914922,32.630465 179.702147,33.2807698 179.58601,34.1761296 L179.15805,37.5974858 L177.584925,37.5974858 L178.084319,33.5960623 C178.09922,33.4534827 178.109191,33.3511178 178.109191,33.2858658 C178.111382,33.2182873 178.114121,33.1558049 178.114121,33.0983078 C178.114121,32.5955679 178.020334,32.220341 177.832102,31.9753965 C177.644199,31.7328893 177.354839,31.6101402 176.963804,31.6101402 C176.427376,31.6101402 176.009388,31.8152022 175.707538,32.2256586 C175.405579,32.6354503 175.195324,33.2858658 175.081377,34.1761296 L174.646296,37.5974858 L173.102643,37.5974858 L174.007975,30.6498606 L175.551628,30.6498606 L175.326473,31.4851753 C175.690116,31.1249043 176.063403,30.8549227 176.451918,30.6774459 C176.842626,30.4997476 177.253274,30.4099015 177.688681,30.4099015 C178.180956,30.4099015 178.586563,30.5148143 178.905504,30.7274097 C179.224447,30.940005 179.464503,31.2624986 179.630383,31.6977708 C180.03599,31.2549653 180.444118,30.9273757 180.854655,30.7198764 C181.265303,30.5122663 181.715285,30.4099015 182.202628,30.4099015 C182.855742,30.4099015 183.362915,30.5998968 183.723819,30.9802199 C184.082534,31.3626478 184.263206,31.9028327 184.263206,32.6005531 C184.263206,32.7456808 184.255756,32.9183937 184.240855,33.1131529 C184.226283,33.3084658 184.201412,33.5709142 184.16175,33.9034891 L183.681857,37.5974858 L182.093831,37.5974858 Z M186.669022,34.3462946 C186.669022,35.0114444 186.819563,35.5292509 187.123934,35.8994926 C187.428304,36.2719499 187.851332,36.4572923 188.39269,36.4572923 C189.01633,36.4572923 189.508603,36.2044821 189.869728,35.7017422 C190.230633,35.1992241 190.413606,34.5039408 190.413606,33.620878 C190.413606,33.0183213 190.250574,32.5406187 189.926263,32.1879919 C189.604911,31.8328169 189.167311,31.6553403 188.617844,31.6553403 C188.021814,31.6553403 187.549482,31.8977367 187.198218,32.3804245 C186.844435,32.8656603 186.669022,33.5207289 186.669022,34.3462946 L186.669022,34.3462946 Z M191.462466,37.5974858 L189.90676,37.5974858 L190.020379,36.8372829 C189.750851,37.1823765 189.439029,37.4423875 189.087766,37.6125524 C188.734312,37.7828282 188.328703,37.8675782 187.868424,37.8675782 C186.970544,37.8675782 186.277987,37.5799818 185.786043,37.0074478 C185.295961,36.4321442 185.051193,35.6194294 185.051193,34.563986 C185.051193,33.3184364 185.350633,32.3155047 185.949073,31.5526431 C186.547843,30.7898921 187.334187,30.4099015 188.303833,30.4099015 C188.763784,30.4099015 189.189333,30.507281 189.58245,30.6997136 C189.976005,30.8925893 190.33965,31.1849495 190.673603,31.5825548 L190.812092,30.6498606 L192.367798,30.6498606 L191.462466,37.5974858 Z M194.506386,34.2338483 C194.506386,34.8789462 194.659775,35.3816861 194.966337,35.7469423 C195.273227,36.1093182 195.693735,36.2921127 196.227862,36.2921127 C196.841313,36.2921127 197.333586,36.0521534 197.704682,35.5691333 C198.075556,35.0889935 198.261268,34.4440064 198.261268,33.6335073 C198.261268,33.0157732 198.097907,32.5255521 197.768667,32.1602958 C197.442274,31.7929345 197.002154,31.6101402 196.453017,31.6101402 C195.864547,31.6101402 195.392104,31.8478837 195.038102,32.3254754 C194.684317,32.8006299 194.506386,33.4359787 194.506386,34.2338483 L194.506386,34.2338483 Z M199.297638,37.5098552 C199.149178,38.650492 198.785534,39.4933401 198.211526,40.0434956 C197.637956,40.5937621 196.828822,40.8688399 195.785331,40.8688399 C194.852719,40.8688399 194.095847,40.638962 193.517238,40.1810899 C192.9383,39.7235502 192.599088,39.085764 192.502891,38.2679533 L193.932377,38.0779579 C193.991761,38.5678467 194.170022,38.9281178 194.469462,39.1582171 C194.768464,39.3880948 195.206392,39.5034214 195.785331,39.5034214 C196.485009,39.5034214 196.987253,39.3058928 197.286693,38.9130511 C197.588214,38.520431 197.773925,37.7852654 197.84076,36.7097699 C197.541321,37.0300478 197.217448,37.2649109 196.863665,37.4225571 C196.512401,37.5799818 196.126296,37.657531 195.705788,37.657531 C194.822808,37.657531 194.13277,37.3751414 193.635567,36.8073711 C193.138584,36.2421489 192.888558,35.4491538 192.888558,34.433925 C192.888558,33.235902 193.190517,32.2655411 193.793887,31.5225098 C194.397369,30.7798108 195.17944,30.4099015 196.138787,30.4099015 C196.588767,30.4099015 197.012125,30.504733 197.410282,30.6921802 C197.808438,30.87996 198.186984,31.1647867 198.543287,31.5526431 L198.674326,30.6498606 L200.20516,30.6498606 L199.297638,37.5098552 Z M202.393162,33.290851 L205.935271,33.290851 C205.92037,32.82323 205.777169,32.4529883 205.505121,32.1804586 C205.230553,31.9103661 204.866908,31.7753198 204.406628,31.7753198 C203.884882,31.7753198 203.442242,31.9129141 203.081117,32.1854438 C202.719883,32.4579735 202.489688,32.8279937 202.393162,33.290851 Z M205.848934,35.4667685 L206.971642,36.354595 C206.571074,36.8849201 206.135555,37.2724442 205.668153,37.5173886 C205.198231,37.7602281 204.659065,37.882645 204.050653,37.882645 C203.031704,37.882645 202.207999,37.5702328 201.579427,36.9471811 C200.951404,36.3244617 200.637174,35.5069833 200.637174,34.4910898 C200.637174,33.2983845 200.998408,32.3204901 201.720765,31.5551912 C202.442796,30.7924402 203.363137,30.4099015 204.478721,30.4099015 C205.411005,30.4099015 206.155496,30.702594 206.707044,31.2850986 C207.261111,31.8676033 207.538199,32.6508493 207.538199,33.6335073 C207.538199,33.7160417 207.535679,33.8209547 207.528229,33.9512371 C207.520778,34.0812982 207.508618,34.2363963 207.493716,34.4163102 L202.254893,34.4163102 C202.254893,35.0465631 202.410583,35.5518509 202.724814,35.9243083 C203.039155,36.299646 203.456924,36.4870932 203.978669,36.4870932 C204.342314,36.4870932 204.686127,36.3972471 205.01252,36.2195488 C205.33683,36.0393025 205.61633,35.789262 205.848934,35.4667685 L205.848934,35.4667685 Z M212.968871,37.5974858 L213.490616,33.6035956 C213.500915,33.5308103 213.508037,33.4534827 213.513077,33.3733856 C213.518336,33.2933991 213.520527,33.1734196 213.520527,33.0183213 C213.520527,32.5632189 213.411511,32.2152448 213.194025,31.9728486 C212.976321,31.7301198 212.659571,31.6101402 212.246512,31.6101402 C211.598657,31.6101402 211.091483,31.8201875 210.723128,32.242941 C210.356964,32.6655836 210.116908,33.3159992 210.00822,34.1886483 L209.57303,37.5974858 L208.014585,37.5974858 L208.919917,30.6498606 L210.418757,30.6498606 L210.304811,31.4851753 C210.700777,31.119919 211.108904,30.8498265 211.531823,30.6721283 C211.954852,30.4971997 212.405162,30.4099015 212.885053,30.4099015 C213.589772,30.4099015 214.1388,30.5973488 214.532027,30.9701385 C214.925581,31.3425957 215.123345,31.8676033 215.123345,32.5406187 C215.123345,32.7129994 215.113375,32.9108604 215.093873,33.1381902 C215.073712,33.3658521 215.046651,33.6309594 215.007208,33.9336224 L214.529834,37.5974858 L212.968871,37.5974858 Z M216.710058,35.1216749 L217.843392,26.6282744 L219.428571,26.6282744 L218.313314,35.1216749 L216.710058,35.1216749 Z" id="Shape" fill="#EC1D24"></path>
                </g>
            </g>
        </g>
    </g>
</svg>